<?xml version="1.0" encoding="utf-8"?>
<!-- Generator: Adobe Illustrator 18.0.0, SVG Export Plug-In . SVG Version: 6.00 Build 0)  -->
<!DOCTYPE svg PUBLIC "-//W3C//DTD SVG 1.1//EN" "http://www.w3.org/Graphics/SVG/1.1/DTD/svg11.dtd">
<svg version="1.1" xmlns="http://www.w3.org/2000/svg" xmlns:xlink="http://www.w3.org/1999/xlink" x="0px" y="0px"
	 viewBox="0 0 235 235" enable-background="new 0 0 235 235" xml:space="preserve">
<g id="Layer_2">
	<circle fill="#D2EFFF" cx="116.5" cy="117" r="116.5"/>
</g>
<g id="Layer_1">
	<g>
		<path fill="#61BCF9" d="M165.942,88.095c0.962-0.595,1.638-1.56,2.67-2.287c0.454-0.398,0.794-0.973,1.189-1.517
			c0.375-0.567,0.736-1.176,1.052-1.859c0.175-0.363,0.343-0.858,0.698-1.365c0.326-0.497,0.73-1.061,1.112-1.711
			c0.195-0.326,0.394-0.673,0.621-1.025c0.222-0.356,0.497-0.698,0.753-1.057c0.255-0.359,0.484-0.757,0.581-1.205
			c0.045-0.216,0.06-0.467-0.06-0.62c-0.122-0.146-0.382-0.167-0.576-0.07c-0.412,0.208-0.681,0.678-0.985,1.088
			c-0.291,0.425-0.599,0.865-0.895,1.306c-0.283,0.465-0.675,0.861-0.96,1.316c-0.142,0.234-0.295,0.475-0.505,0.682
			c-0.056,0.05-0.112,0.103-0.203,0.137c-0.044,0.016-0.111,0.025-0.171-0.006c-0.059-0.031-0.09-0.081-0.106-0.121
			c-0.071-0.155-0.045-0.342,0.016-0.477c0.12-0.281,0.324-0.49,0.466-0.718c0.149-0.234,0.279-0.481,0.405-0.733
			c0.247-0.508,0.492-1.02,0.723-1.538c0.234-0.517,0.462-1.039,0.699-1.556c0.118-0.257,0.222-0.514,0.324-0.78
			c0.093-0.267,0.234-0.526,0.3-0.78c0.067-0.256,0.082-0.542-0.046-0.748c-0.126-0.197-0.409-0.31-0.623-0.216
			c-0.218,0.093-0.381,0.326-0.497,0.559c-0.119,0.238-0.203,0.496-0.295,0.753c-0.4,1.018-0.815,1.994-1.313,2.89
			c-0.246,0.447-0.497,0.877-0.722,1.305c-0.057,0.105-0.108,0.218-0.18,0.325c-0.075,0.094-0.146,0.242-0.355,0.244
			c-0.095-0.001-0.188-0.101-0.198-0.171c-0.023-0.071-0.027-0.136-0.029-0.199c-0.003-0.119,0.014-0.262,0.06-0.372
			c0.082-0.228,0.2-0.425,0.287-0.623c0.085-0.2,0.168-0.407,0.25-0.605c0.163-0.398,0.323-0.781,0.468-1.149
			c0.288-0.737,0.547-1.418,0.845-1.991c0.304-0.568,0.594-1.036,0.741-1.456c0.152-0.416,0.191-0.771,0.099-0.96
			c-0.084-0.194-0.205-0.243-0.196-0.248c-0.001,0.01-0.091-0.089-0.298-0.122c-0.205-0.048-0.517,0.128-0.745,0.507
			c-0.232,0.379-0.453,0.885-0.725,1.466c-0.276,0.58-0.635,1.211-1.007,1.909c-0.09,0.175-0.192,0.354-0.268,0.536
			c-0.077,0.185-0.136,0.388-0.215,0.594c-0.173,0.397-0.31,0.821-0.562,1.23c-0.062,0.094-0.132,0.217-0.274,0.283
			c-0.148,0.069-0.33,0.002-0.418-0.11c-0.095-0.11-0.14-0.251-0.134-0.392c0.01-0.15,0.053-0.249,0.079-0.373
			c0.127-0.476,0.278-0.944,0.397-1.439c0.124-0.492,0.246-0.999,0.408-1.507c0.161-0.508,0.363-1.005,0.527-1.518
			c0.139-0.503,0.391-1.083,0.068-1.498c-0.142-0.199-0.423-0.251-0.654-0.167c-0.223,0.092-0.382,0.331-0.508,0.569
			c-0.241,0.497-0.462,1.022-0.648,1.554c-0.192,0.538-0.403,1.06-0.55,1.608c-0.158,0.544-0.298,1.097-0.48,1.638
			c-0.182,0.542-0.418,1.06-0.64,1.571c-0.107,0.251-0.183,0.519-0.279,0.784c-0.047,0.133-0.103,0.264-0.165,0.393
			c-0.07,0.134-0.164,0.248-0.263,0.352c-0.096,0.099-0.201,0.185-0.31,0.266c-0.005,0.004-0.009,0.007-0.014,0.011
			c-0.013,0.009-0.026,0.017-0.039,0.026c-0.074,0.051-0.145,0.105-0.237,0.144c-0.036,0.015-0.075,0.028-0.119,0.038
			c-0.001,0-0.003,0-0.005,0.001c-0.058,0.011-0.126,0.004-0.185-0.021c-0.026-0.011-0.051-0.025-0.072-0.043
			c-0.071-0.057-0.111-0.129-0.142-0.197c-0.06-0.138-0.087-0.276-0.11-0.411c-0.008-0.044-0.014-0.089-0.021-0.133
			c-0.016-0.11-0.028-0.219-0.038-0.328c-0.011-0.116-0.019-0.231-0.026-0.345c-0.006-0.094-0.011-0.188-0.017-0.281
			c-0.008-0.128-0.016-0.254-0.027-0.379c-0.004-0.039-0.007-0.078-0.012-0.117c-0.05-0.507-0.191-0.997-0.471-1.39
			c-0.28-0.389-0.669-0.695-1.087-0.875c-0.209-0.088-0.432-0.147-0.641-0.134c-0.209,0.01-0.408,0.107-0.495,0.274
			c-0.092,0.165-0.062,0.382,0.015,0.558c0.08,0.179,0.229,0.329,0.349,0.513c0.216,0.387,0.328,0.765,0.436,1.138
			c0.208,0.739,0.262,1.457,0.184,2.059c-0.064,0.601-0.145,1.103-0.143,1.504c0.002,0.74,0.13,1.455,0.187,2.13
			c0.041,0.335,0.092,0.661,0.199,0.957c0.11,0.293,0.258,0.596,0.307,0.919c0.057,0.324-0.001,0.659-0.123,0.943
			c-0.122,0.294-0.311,0.531-0.472,0.771c-0.325,0.483-0.623,0.971-0.976,1.414c-0.121,0.142-0.243,0.282-0.364,0.422
			c1.422,1.225,3.206,1.986,4.772,2.405c0.194-0.274,0.385-0.548,0.564-0.828C165.193,88.949,165.479,88.444,165.942,88.095z"/>
		<path fill="#61BCF9" d="M166.022,88.197c0.217-0.17,0.457-0.321,0.685-0.499c0.231-0.18,0.433-0.386,0.645-0.587
			c0.421-0.412,0.848-0.807,1.365-1.178c0.492-0.431,0.821-0.993,1.227-1.546c0.38-0.569,0.749-1.191,1.068-1.88
			c0.179-0.371,0.346-0.858,0.682-1.337c0.331-0.505,0.729-1.06,1.12-1.723c0.196-0.327,0.394-0.672,0.618-1.019
			c0.219-0.35,0.487-0.682,0.749-1.051c0.26-0.367,0.505-0.786,0.61-1.271c0.043-0.236,0.086-0.52-0.096-0.769
			c-0.205-0.235-0.544-0.235-0.789-0.119c-0.495,0.26-0.745,0.737-1.056,1.147c-0.296,0.432-0.595,0.859-0.898,1.31
			c-0.276,0.455-0.66,0.84-0.961,1.318c-0.142,0.236-0.291,0.464-0.477,0.648c-0.045,0.043-0.098,0.084-0.139,0.098
			c-0.041,0.007-0.027,0.015-0.056-0.032c-0.044-0.104-0.032-0.217,0.018-0.336c0.1-0.239,0.295-0.443,0.452-0.691
			c0.154-0.242,0.287-0.495,0.414-0.75c0.249-0.51,0.494-1.024,0.726-1.544c0.234-0.519,0.462-1.04,0.699-1.555
			c0.119-0.259,0.228-0.527,0.328-0.79c0.092-0.268,0.228-0.508,0.306-0.8c0.07-0.279,0.102-0.605-0.067-0.887
			c-0.175-0.268-0.53-0.41-0.838-0.286c-0.299,0.133-0.462,0.396-0.591,0.644c-0.127,0.254-0.212,0.518-0.303,0.772
			c-0.394,1.003-0.81,1.982-1.301,2.865c-0.244,0.444-0.496,0.875-0.723,1.308c-0.059,0.109-0.108,0.217-0.171,0.309
			c-0.056,0.091-0.148,0.179-0.19,0.166c-0.04,0.017-0.066-0.088-0.068-0.197c0.001-0.113,0.007-0.206,0.05-0.31
			c0.074-0.206,0.188-0.4,0.282-0.61c0.09-0.21,0.169-0.41,0.252-0.61c0.163-0.398,0.322-0.78,0.469-1.151
			c0.289-0.741,0.546-1.414,0.837-1.975c0.297-0.557,0.595-1.035,0.75-1.476c0.157-0.431,0.214-0.827,0.096-1.088
			c-0.112-0.255-0.267-0.318-0.256-0.324c-0.005,0.011-0.104-0.108-0.379-0.155c-0.137-0.022-0.319,0.012-0.482,0.119
			c-0.162,0.107-0.309,0.27-0.434,0.469c-0.244,0.397-0.465,0.909-0.735,1.484c-0.273,0.573-0.629,1.201-1.004,1.903
			c-0.091,0.177-0.192,0.351-0.275,0.552c-0.082,0.197-0.141,0.401-0.216,0.597c-0.17,0.39-0.313,0.822-0.546,1.198
			c-0.109,0.206-0.277,0.312-0.41,0.151c-0.061-0.07-0.095-0.17-0.09-0.269c0.003-0.09,0.048-0.221,0.073-0.334
			c0.123-0.463,0.278-0.945,0.397-1.44c0.125-0.494,0.246-0.997,0.405-1.496c0.158-0.499,0.36-0.997,0.527-1.518
			c0.084-0.26,0.156-0.528,0.213-0.802c0.056-0.288,0.017-0.609-0.175-0.86c-0.193-0.264-0.566-0.334-0.858-0.224
			c-0.304,0.13-0.466,0.403-0.602,0.652c-0.251,0.516-0.469,1.037-0.658,1.577c-0.19,0.531-0.405,1.066-0.554,1.619
			c-0.159,0.548-0.298,1.098-0.478,1.631c-0.178,0.532-0.411,1.042-0.635,1.558c-0.113,0.265-0.189,0.535-0.283,0.792
			c-0.094,0.263-0.197,0.5-0.388,0.681c-0.091,0.094-0.195,0.178-0.301,0.257c-0.003,0.002-0.006,0.004-0.009,0.006
			c-0.02,0.014-0.041,0.028-0.061,0.042c-0.063,0.043-0.127,0.085-0.187,0.11c-0.022,0.009-0.044,0.016-0.064,0.019
			c-0.03,0.007-0.057,0.005-0.082-0.005c-0.091-0.036-0.15-0.176-0.188-0.326c-0.017-0.066-0.029-0.134-0.039-0.195
			c-0.009-0.051-0.016-0.101-0.024-0.152c-0.009-0.062-0.016-0.124-0.023-0.187c-0.014-0.133-0.024-0.266-0.033-0.4
			c-0.018-0.278-0.03-0.557-0.06-0.835c-0.052-0.523-0.2-1.048-0.502-1.473c-0.303-0.421-0.711-0.74-1.163-0.936
			c-0.227-0.094-0.469-0.163-0.722-0.147c-0.246,0.012-0.515,0.13-0.64,0.368c-0.126,0.238-0.082,0.503,0.01,0.715
			c0.1,0.217,0.258,0.372,0.362,0.537c0.189,0.338,0.313,0.732,0.414,1.088c0.46,1.467,0.007,2.68,0.036,3.515
			c0.004,0.772,0.132,1.47,0.192,2.153c0.043,0.34,0.096,0.677,0.212,0.993c0.12,0.313,0.257,0.591,0.305,0.889
			c0.053,0.294,0.005,0.588-0.107,0.857c-0.108,0.266-0.288,0.501-0.45,0.747c-0.323,0.49-0.613,0.977-0.954,1.417
			c-0.117,0.141-0.236,0.282-0.354,0.421c0.03,0.027,0.061,0.054,0.092,0.08c0.121-0.139,0.243-0.28,0.364-0.422
			c0.352-0.443,0.651-0.931,0.976-1.414c0.161-0.24,0.35-0.477,0.472-0.771c0.122-0.284,0.18-0.619,0.123-0.943
			c-0.049-0.323-0.197-0.626-0.307-0.919c-0.107-0.297-0.158-0.623-0.199-0.957c-0.057-0.675-0.185-1.39-0.187-2.13
			c-0.002-0.402,0.078-0.903,0.143-1.504c0.077-0.602,0.023-1.319-0.184-2.059c-0.108-0.373-0.22-0.751-0.436-1.138
			c-0.12-0.185-0.269-0.334-0.349-0.513c-0.077-0.176-0.107-0.393-0.015-0.558c0.087-0.168,0.287-0.264,0.495-0.274
			c0.209-0.014,0.432,0.046,0.641,0.134c0.418,0.18,0.807,0.485,1.087,0.875c0.279,0.393,0.42,0.883,0.471,1.39
			c0.004,0.039,0.008,0.078,0.012,0.117c0.011,0.125,0.02,0.251,0.027,0.379c0.006,0.093,0.011,0.187,0.017,0.281
			c0.007,0.114,0.015,0.23,0.026,0.345c0.01,0.109,0.022,0.218,0.038,0.328c0.006,0.044,0.013,0.089,0.021,0.133
			c0.022,0.135,0.049,0.273,0.11,0.411c0.031,0.068,0.071,0.14,0.142,0.197c0.021,0.018,0.046,0.032,0.072,0.043
			c0.059,0.025,0.127,0.032,0.185,0.021c0.002,0,0.003,0,0.005-0.001c0.044-0.009,0.083-0.022,0.119-0.038
			c0.092-0.039,0.163-0.093,0.237-0.144c0.013-0.009,0.026-0.018,0.039-0.026c0.005-0.004,0.009-0.007,0.014-0.011
			c0.109-0.081,0.214-0.167,0.31-0.266c0.099-0.104,0.193-0.217,0.263-0.352c0.062-0.129,0.119-0.26,0.165-0.393
			c0.097-0.265,0.172-0.533,0.279-0.784c0.222-0.51,0.458-1.028,0.64-1.571c0.182-0.541,0.323-1.093,0.48-1.638
			c0.148-0.547,0.358-1.07,0.55-1.608c0.185-0.532,0.407-1.057,0.648-1.554c0.126-0.238,0.285-0.477,0.508-0.569
			c0.231-0.083,0.512-0.032,0.654,0.167c0.323,0.415,0.071,0.996-0.068,1.498c-0.164,0.513-0.366,1.011-0.527,1.518
			c-0.162,0.507-0.283,1.014-0.408,1.507c-0.119,0.495-0.27,0.963-0.397,1.439c-0.026,0.124-0.069,0.223-0.079,0.373
			c-0.005,0.141,0.039,0.282,0.134,0.392c0.088,0.112,0.271,0.179,0.418,0.11c0.142-0.067,0.212-0.189,0.274-0.283
			c0.252-0.409,0.389-0.832,0.562-1.23c0.079-0.205,0.138-0.408,0.215-0.594c0.075-0.182,0.178-0.361,0.268-0.536
			c0.373-0.698,0.731-1.329,1.007-1.909c0.273-0.581,0.493-1.087,0.725-1.466c0.228-0.379,0.54-0.555,0.745-0.507
			c0.207,0.033,0.296,0.132,0.298,0.122c-0.008,0.005,0.112,0.054,0.196,0.248c0.093,0.189,0.053,0.544-0.099,0.96
			c-0.147,0.42-0.437,0.887-0.741,1.456c-0.298,0.573-0.557,1.254-0.845,1.991c-0.145,0.367-0.305,0.75-0.468,1.149
			c-0.082,0.198-0.164,0.405-0.25,0.605c-0.087,0.197-0.205,0.395-0.287,0.623c-0.046,0.11-0.063,0.253-0.06,0.372
			c0.002,0.064,0.006,0.128,0.029,0.199c0.011,0.07,0.104,0.17,0.198,0.171c0.209-0.002,0.28-0.15,0.355-0.244
			c0.072-0.107,0.124-0.22,0.18-0.325c0.225-0.428,0.476-0.858,0.722-1.305c0.498-0.896,0.913-1.873,1.313-2.89
			c0.092-0.257,0.176-0.515,0.295-0.753c0.116-0.232,0.279-0.466,0.497-0.559c0.214-0.094,0.497,0.019,0.623,0.216
			c0.127,0.206,0.113,0.492,0.046,0.748c-0.066,0.254-0.207,0.513-0.3,0.78c-0.101,0.266-0.205,0.523-0.324,0.78
			c-0.237,0.517-0.466,1.039-0.699,1.556c-0.231,0.518-0.476,1.031-0.723,1.538c-0.125,0.252-0.256,0.499-0.405,0.733
			c-0.142,0.228-0.346,0.438-0.466,0.718c-0.061,0.135-0.087,0.322-0.016,0.477c0.017,0.04,0.048,0.09,0.106,0.121
			c0.06,0.032,0.127,0.022,0.171,0.006c0.091-0.034,0.146-0.086,0.203-0.137c0.21-0.207,0.363-0.448,0.505-0.682
			c0.285-0.454,0.676-0.851,0.96-1.316c0.296-0.44,0.604-0.88,0.895-1.306c0.304-0.41,0.574-0.879,0.985-1.088
			c0.195-0.097,0.455-0.076,0.576,0.07c0.12,0.153,0.105,0.404,0.06,0.62c-0.097,0.448-0.326,0.846-0.581,1.205
			c-0.256,0.359-0.531,0.702-0.753,1.057c-0.226,0.352-0.426,0.699-0.621,1.025c-0.382,0.65-0.786,1.214-1.112,1.711
			c-0.355,0.506-0.523,1.002-0.698,1.365c-0.316,0.682-0.676,1.292-1.052,1.859c-0.396,0.544-0.735,1.12-1.189,1.517
			c-1.032,0.727-1.708,1.692-2.67,2.287c-0.463,0.349-0.748,0.854-1.039,1.316c-0.18,0.28-0.37,0.554-0.564,0.828
			c0.03,0.008,0.061,0.016,0.091,0.024c0.192-0.262,0.382-0.525,0.562-0.795C165.293,89.004,165.575,88.524,166.022,88.197z"/>
	</g>
	<path fill="#61BCF9" d="M139.55,106.556c0-12.469-11.905-22.577-26.59-22.577s-26.59,10.108-26.59,22.577
		c0,0,0.298,35.044,8.675,39.297h17.915h17.915c8.368-4.249,8.674-39.214,8.675-39.294L139.55,106.556z"/>
	<polygon fill="#61BCF9" points="112.96,96.42 116.637,88.287 113.243,86.74 109.433,88.722 	"/>
	<path fill="#61BCF9" d="M112.96,96.42l2.899-7.92l7.68-3.391l2.574,1.008c0,0,0.636-0.013,0,1.362
		c-0.636,1.375-2.404,6.679-5.375,4.416c-2.97-2.263-3.677-2.475-3.677-2.475L112.96,96.42z"/>
	<path fill="#61BCF9" d="M112.96,96.42l-2.899-7.92l-7.68-3.391l-2.574,1.008c0,0-0.636-0.013,0,1.362
		c0.636,1.375,2.404,6.679,5.375,4.416c2.97-2.263,3.677-2.475,3.677-2.475L112.96,96.42z"/>
	<ellipse fill="#61BCF9" cx="112.96" cy="68.301" rx="17.915" ry="20.826"/>
	<path fill="#1486D3" d="M94.149,64.455c0,0,3.96,0.319,6.152-1.679c0,0-0.566,1.575-0.778,1.698c0,0,9.264,1.961,19.66-8.434
		c0,0,2.404-5.092,0.495-7.85c-1.909-2.758-6.643-3.041-6.643-3.041s-7.005-0.141-10.541,2.97c0,0,1.131,0.424,0,1.061
		c0,0-2.829,0.283-7.072,6.789S94.149,64.455,94.149,64.455z"/>
	<path fill="#1486D3" d="M120.176,49.235c0,0,1.482-0.904,3.25,0.51c1.768,1.414,4.597,4.95,6.223,4.809c0,0-0.354,0.165-0.919,0.33
		c0,0,2.261,3.147,2.145,7.095s-0.589,2.383-1.084,2.04s-8.557-4.02-10.608-7.98C117.132,52.079,120.176,49.235,120.176,49.235z"/>
	<path fill="#61BCF9" d="M112.96,142.876H92.23c2.068,10.765,3.666,45.845,3.666,45.845h9.119v-31.965
		c0-5.66,3.591-10.248,8.02-10.248c4.429,0,8.019,4.588,8.019,10.248c0,0.089-0.019,0.171-0.02,0.259v31.706h8.99
		c0,0,1.598-35.08,3.666-45.845H112.96z"/>
	<path fill="#61BCF9" d="M106.132,192.381H92.078c-0.333,0-0.605-0.272-0.605-0.605v-5.673c0-0.333,0.272-0.605,0.605-0.605h14.054
		c0.333,0,0.605,0.272,0.605,0.605v5.673C106.737,192.109,106.465,192.381,106.132,192.381z"/>
	<path fill="#61BCF9" d="M133.842,192.381h-14.054c-0.333,0-0.605-0.272-0.605-0.605v-5.673c0-0.333,0.272-0.605,0.605-0.605h14.054
		c0.333,0,0.605,0.272,0.605,0.605v5.673C134.447,192.109,134.175,192.381,133.842,192.381z"/>
	<path fill="#61BCF9" d="M128.773,88.51c0,0,16.711,11.618,20.586,10.109l10.333-13.511l5.884,5.127c0,0-10.62,18.948-15.357,18.781
		c-4.736-0.168-14.065-2.851-14.065-2.851L128.773,88.51z"/>
	<path fill="#61BCF9" d="M86.611,113.347c0,0-1.074,6.313-0.241,8.48s8.675,7.5,8.675,7.5l-2.815,9c0,0-13.23-3.167-14.23-19.563
		c-0.593-9.73,8.411-21.553,15.96-28.001c7.55-6.447-0.822,16.23-0.822,16.23L86.611,113.347z"/>
</g>
<g id="Layer_3">
</g>
<g id="Layer_5">
</g>
<g id="Layer_4">
</g>
</svg>
